<svg width="428" height="926" viewBox="0 0 428 926" fill="none" xmlns="http://www.w3.org/2000/svg">
<rect width="428" height="926" fill="#E5E5E5"/>
<rect width="428" height="926" fill="white"/>
<path d="M123.811 272.756C113.105 295.025 108.029 319.402 95.5591 340.971C94.447 342.895 86.8661 356.754 86.8661 348.276C86.8661 336.27 92.4842 325.826 102.079 318.394C109.129 312.932 115.814 309.131 123.811 305.354C124.755 304.909 139.869 299.831 139.869 301.612C139.869 305.949 119.579 308.138 117.231 308.675C104.663 311.547 88.5368 312.66 77.3281 319.239C73.0225 321.766 75.8666 324.201 79.5013 325.759C91.1266 330.741 104.918 331.684 117.352 333.003C129.937 334.337 143.145 334.693 155.806 334.693C164.889 334.693 174.651 334.569 183.333 331.675C184.961 331.132 180.526 332.83 179.47 333.848C175.468 337.702 172.995 341.965 169.992 346.585C168.79 348.434 165.354 354 166.913 352.441C173.199 346.155 180.575 340.929 187.378 335.236C194.111 329.602 200.951 324.857 208.929 321.231C210.869 320.349 210.74 334.147 210.74 335.538C210.74 338.163 209.263 344.671 213.638 342.903C225.345 338.17 237.006 332.758 248.591 327.69C250.889 326.685 261.125 320.181 257.283 326.664C251.132 337.044 242.91 347.46 234.646 356.184C204.679 387.816 155.566 379.233 117.835 369.887C108.562 367.59 99.3846 364.563 90.6089 360.772C86.7832 359.119 82.2453 357.435 81.0105 353.045C76.9447 338.589 88.0738 322.746 97.3701 312.961C137.267 270.964 210.121 275.03 260.604 290.806C289.479 299.829 317.265 311.536 342.22 328.173" stroke="white" stroke-width="3" stroke-linecap="round"/>
</svg>
